<svg width="15" height="15" viewBox="0 0 15 15" fill="none" xmlns="http://www.w3.org/2000/svg">
<path fill-rule="evenodd" clip-rule="evenodd" d="M0.146447 13.5815C-0.0488154 13.7767 -0.0488154 14.0933 0.146447 14.2886C0.341709 14.4838 0.658291 14.4838 0.853553 14.2886L7.21751 7.92462L13.5815 14.2886C13.7767 14.4838 14.0933 14.4838 14.2886 14.2886C14.4838 14.0933 14.4838 13.7767 14.2886 13.5815L7.92462 7.21751L14.2886 0.853554C14.4838 0.658291 14.4838 0.341709 14.2886 0.146447C14.0933 -0.0488154 13.7767 -0.0488157 13.5815 0.146446L7.21751 6.51041L0.853554 0.146448C0.658291 -0.0488146 0.341709 -0.0488146 0.146447 0.146448C-0.0488154 0.34171 -0.0488157 0.658292 0.146446 0.853554L6.51041 7.21751L0.146447 13.5815Z" fill="black"/>
</svg>
